<?xml version="1.0" encoding="UTF-8"?> <svg xmlns="http://www.w3.org/2000/svg" width="680" height="264" viewBox="0 0 680 264" fill="none"> <path d="M41.5902 206.541L36.4102 198.301V67.4807L41.5902 61.4307V206.541Z" fill="white"></path> <path d="M67.7608 92.5102L65.0008 96.7602L61.2208 93.2802L34.8908 69.0102L31.0508 59.1602L63.9308 89.0302L67.7608 92.5102Z" fill="white"></path> <path d="M67.7617 92.5103L65.0017 96.7603L38.8317 137.1L29.7617 142.55L61.2217 93.2803L63.9317 89.0303L67.7617 92.5103Z" fill="white"></path> <path d="M103.313 61.4307V206.541L98.1328 198.301V67.4807L103.313 61.4307Z" fill="white"></path> <path d="M103.312 72.5605V84.6705L98.1317 99.5705L68.7117 184.221V184.231L62.2417 202.841L62.2317 202.851L60.9517 206.541L60.6417 205.181L59.8817 201.911V201.901L58.7617 197.051L98.1317 83.7905L101.712 73.4905L103.312 72.5605Z" fill="white"></path> <path d="M103.313 133.74V142.91L98.1328 150.47L62.2428 202.84L62.2328 202.86L60.6428 205.18L59.8828 201.91V201.9L60.0828 196.81L68.7128 184.23V184.22L98.1328 141.29L103.313 133.74Z" fill="white"></path> <path d="M138.871 68.2299V208.63L134.941 202.38L133.691 200.39V69.5699L136.171 66.6699L138.871 68.2299Z" fill="white"></path> <path d="M159.071 79.4301L149.351 79.8101L133.691 70.8001V64.8301L159.071 79.4301Z" fill="white"></path> <path d="M171.181 140.07L170.821 149.8L170.541 150.21L167.611 154.51L165.811 157.15L162.881 161.44L138.871 196.62L134.941 202.38L133.691 200.39V195.01L138.871 187.42L158.371 158.85L161.301 154.55L163.101 151.91L166.031 147.62L171.181 140.07Z" fill="white"></path> <path d="M170.541 150.21L167.611 154.51L163.101 151.91L148.621 143.58L145.961 136.07L166.031 147.62L170.541 150.21Z" fill="white"></path> <path d="M213.84 63.5205V208.631L208.66 200.381V69.5605L213.84 63.5205Z" fill="white"></path> <path d="M213.843 74.6406V86.7506L208.663 101.651L179.243 186.301V186.321L172.773 204.921L172.763 204.941L171.483 208.631L171.173 207.261L170.413 204.001V203.981L169.293 199.131L208.663 85.8706L212.243 75.5706L213.843 74.6406Z" fill="white"></path> <path d="M213.84 135.83V144.99L208.66 152.55L172.77 204.92L172.76 204.94L171.17 207.26L170.41 204V203.98L170.61 198.9L179.24 186.32V186.3L208.66 143.38L213.84 135.83Z" fill="white"></path> <path d="M278.383 211.14V60L273.203 68.58V204.84L278.383 211.14Z" fill="white"></path> <path d="M278.382 175.91L275.202 167.3L273.202 161.9L245.782 87.7205V87.7105L239.312 70.2105L239.302 70.2005L238.022 66.7305L237.712 68.0105L236.952 71.0805V71.0905L235.832 75.6505L273.202 176.74L275.202 182.14L278.382 190.75V175.91Z" fill="white"></path> <path d="M239.25 209.451V63.9707L236.42 68.4807L234.35 71.7907L234.07 72.2307V203.381L239.25 209.451Z" fill="white"></path> <path d="M275.2 202.24V190.86L270.02 176.85L240.6 97.2598V97.2498L239.25 93.5998L234.35 80.3398L234.07 80.7598V94.4498L239.25 108.46L270.02 191.69L273.6 201.37L275.2 202.24Z" fill="white"></path> <path d="M279.024 102.521V111.691L273.844 119.251L237.954 171.621L237.944 171.641L236.354 173.961L235.594 170.691V170.681L235.794 165.591L244.424 153.011V153.001L273.844 110.071L279.024 102.521Z" fill="white"></path> <path d="M58 88.4507L55.24 92.7007L29.07 133.041L20 138.491L51.46 89.2207L54.17 84.9707L58 88.4507Z" fill="white"></path> <path d="M165.813 157.151L162.883 161.441L158.373 158.851L152.953 155.731L150.293 148.221L161.303 154.551L165.813 157.151Z" fill="white"></path> <path d="M421 65.5515V205L416.451 198.785L415 196.815V66.88L417.87 64L421 65.5515Z" fill="white"></path> <path d="M443 75.6417L432.277 76L415 67.5843V62L443 75.6417Z" fill="white"></path> <path d="M456 137L455.601 146.68L455.304 147.09L452.092 151.371L420.667 193.276L416.371 199L415 197.027V191.665L420.667 184.117L447.162 148.784L450.364 144.511L456 137Z" fill="white"></path> <path d="M455 146.801L451.893 151L447.125 148.462L431.81 140.33L429 133L450.221 144.273L455 146.801Z" fill="white"></path> <path d="M462.384 115L541 208L535.303 206.464L533.485 205.967L460.242 119.318L460 115.759L462.384 115Z" fill="white"></path> <path d="M548.636 115L471 208L476.627 206.464L478.412 205.967L550.761 119.318L551 115.759L548.636 115Z" fill="white"></path> <path d="M508 67.4162L505.152 70.8416L462.35 122L460 121.244L460.239 117.697L502.284 67.4162L505.152 64L508 67.4162Z" fill="white"></path> <path d="M550 121.244L547.65 122L504.868 70.8416L502 67.4162L504.868 64L507.716 67.4162L549.771 117.697L550 121.244Z" fill="white"></path> <path d="M569 64.7152V209L564.776 202.651V202.642L564.451 202.147L563 199.962V60L569 64.7152Z" fill="white"></path> <path d="M598.898 90L596.574 91.3394L595.594 94.2043L568.597 173.295L563 189.694V199.33L564.354 201.507L564.657 202L568.597 190.475L600.151 98.0272L602 92.6044L598.898 90Z" fill="white"></path> <path d="M602 93.453L600.151 99L595.594 95.0895L568.597 71.9312L563 67.1264V60L568.597 64.8048L598.898 90.789L602 93.453Z" fill="white"></path> <path d="M665 142V150.6L659.752 157.69L658.81 158.956L655.629 163.261L652.113 168.007L648.932 172.302L623.391 206.805L623.381 206.824L621.77 209L621 205.933V205.924L621.203 201.15L629.946 189.352V189.343L645.751 167.997L648.932 163.692L652.437 158.956L655.629 154.652L659.752 149.081L665 142Z" fill="white"></path> <path d="M653 64V72.6001L647.761 79.6902L623.653 112.234L620.471 116.529L616.955 121.274L613.773 125.57L611.381 128.805V128.824L609.77 131L609 127.933V127.924L609.203 123.15L610.591 121.274L613.773 116.979L617.948 111.352V111.343L618.161 111.052L620.471 107.938L647.761 71.0808L653 64Z" fill="white"></path> <path d="M662 172V163.4L656.752 156.31L620.391 107.195L620.381 107.176L618.77 105L618 108.067V108.076L618.203 112.85L626.946 124.648V124.657L656.752 164.919L662 172Z" fill="white"></path> <path d="M652 167.716L648.862 172L647.653 170.344L645.725 167.707L618.255 130.189V130.18L614.138 124.568L611 120.284L614.138 116L617.275 120.284L647.653 161.758L648.862 163.413L652 167.716Z" fill="white"></path> <path d="M367.03 161.29L363.89 165.87L362.68 164.1L360.75 161.28L333.26 121.17V121.16L329.14 115.16L326 110.58L329.14 106L332.28 110.58L362.68 154.92L363.89 156.69L367.03 161.29Z" fill="white"></path> <path d="M367.03 110.58L363.89 106L362.68 107.77L360.75 110.59L333.26 150.7V150.71L329.14 156.71L326 161.29L329.14 165.87L332.28 161.29L362.68 116.95L363.89 115.18L367.03 110.58Z" fill="white"></path> <path d="M508 68H502V172H508V68Z" fill="white"></path> <path d="M448 152.781L444.979 157L440.33 154.453L434.742 151.385L432 144L443.351 150.225L448 152.781Z" fill="white"></path> <path d="M0.704472 261.872L13.7197 256.658L670.444 256.125L680 261.28L0.704472 261.872Z" fill="white"></path> <path d="M-0.00103354 246.752L13.0268 251.899L669.751 251.365L679.294 246.161L-0.00103354 246.752Z" fill="white"></path> <path d="M0.704472 16.8715L13.7197 11.658L670.444 11.1249L680 16.2803L0.704472 16.8715Z" fill="white"></path> <path d="M-0.00103354 1.75211L13.0268 6.89852L669.751 6.36545L679.294 1.16084L-0.00103354 1.75211Z" fill="white"></path> </svg> 